<?xml version="1.0" encoding="UTF-8"?>
<svg version="1.1" xmlns="http://www.w3.org/2000/svg" width="680" height="679">
<path d="M0 0 C6.09016477 4.61730342 10.06038602 10.31489029 11.56640625 17.82421875 C12.32869495 24.09103426 11.87180099 28.95223881 9.59375 34.84375 C8.88097402 37.43225225 9.14046876 38.47271298 10 41 C11.35150992 43.19778436 11.35150992 43.19778436 13.0546875 45.40625 C13.66957031 46.23253906 14.28445313 47.05882812 14.91796875 47.91015625 C15.88669922 49.19212891 15.88669922 49.19212891 16.875 50.5 C17.51308594 51.35464844 18.15117187 52.20929688 18.80859375 53.08984375 C22.21387393 57.65407501 22.21387393 57.65407501 25.70751953 62.15039062 C27 64 27 64 27 66 C27.66 66 28.32 66 29 66 C30.4375 67.93359375 30.4375 67.93359375 32 70.4375 C33.9529916 73.81006651 33.9529916 73.81006651 37 76 C39.61597757 75.73318869 42.20707336 75.41016077 44.8125 75.0625 C53.75269347 73.98302014 62.62515068 73.80309114 71.625 73.8125 C73.57369995 73.81165405 73.57369995 73.81165405 75.56176758 73.81079102 C84.86470853 73.86470853 84.86470853 73.86470853 86 75 C87.90527375 75.34189728 89.82610365 75.59899443 91.75 75.8125 C92.79671875 75.94269531 93.8434375 76.07289063 94.921875 76.20703125 C98.93477592 75.93712802 100.18169222 74.83203331 103 72 C104.66816835 69.85679033 106.22571989 67.73866164 107.75 65.5 C108.62243478 64.2478169 109.4961584 62.99653091 110.37109375 61.74609375 C111.02634033 60.80612549 111.02634033 60.80612549 111.69482422 59.84716797 C113.67739575 57.04130635 115.74168914 54.30399084 117.8125 51.5625 C118.53566406 50.58925781 119.25882812 49.61601563 120.00390625 48.61328125 C121.21288563 47.03048829 122.46150668 45.4756067 123.77734375 43.98046875 C125.46916254 42.1149347 125.46916254 42.1149347 127 39 C125.95886643 35.70640433 125.95886643 35.70640433 124.859375 33.5 C122.58758332 26.89115147 122.64306162 17.88808556 125.625 11.5 C126.7421875 9.703125 126.7421875 9.703125 128 8 C128.43570312 7.37609375 128.87140625 6.7521875 129.3203125 6.109375 C133.53058138 0.63372477 138.55077803 -1.85025934 145 -4 C155.15244782 -4.85775529 161.87714357 -3.44807645 170.25 2.1875 C175.88141872 7.94690551 179.06311318 14.56586796 179.3125 22.625 C179.20770791 30.53098131 176.24479731 37.70023419 170.81640625 43.46875 C166.67436998 46.96053111 161.89180475 49.69415733 156.44921875 50.26977539 C150.78488587 50.8447792 150.78488587 50.8447792 146.03930664 53.72827148 C144.30805082 56.01385889 142.8270771 58.34037856 141.375 60.8125 C140.28561129 62.53414218 139.19576499 64.2554949 138.10546875 65.9765625 C137.58388184 66.82637695 137.06229492 67.67619141 136.52490234 68.55175781 C134.36647301 72.01713235 132.04010409 75.35233773 129.6875 78.6875 C128.96949219 79.72261719 128.25148438 80.75773437 127.51171875 81.82421875 C127.01285156 82.54222656 126.51398438 83.26023437 126 84 C126.5857933 84.29051239 127.17158661 84.58102478 127.77513123 84.88034058 C129.11073927 85.55248185 130.44014365 86.23750263 131.7559967 86.94754028 C149.50643415 96.26662655 168.31923321 95.07809921 187.78649902 94.89630127 C194.80097576 94.83993869 201.81580093 94.85963893 208.83043098 94.86957169 C211.26019225 94.86723407 213.68935208 94.84839784 216.1190033 94.82614136 C217.60724816 94.81993939 219.09549379 94.81391763 220.58374023 94.80810547 C221.87497299 94.7972995 223.16620575 94.78649353 224.49656677 94.77536011 C228.0179237 95.00114927 230.71078631 95.7736744 234 97 C236.64597999 97.33216297 239.2647014 97.49714209 241.92578125 97.65625 C242.61027344 97.7696875 243.29476563 97.883125 244 98 C244.33 98.66 244.66 99.32 245 100 C247.40400974 100.88099407 247.40400974 100.88099407 250.25 101.5625 C251.20390625 101.81128906 252.1578125 102.06007813 253.140625 102.31640625 C255.75165481 102.94062786 258.36363415 103.49485691 261 104 C261 104.66 261 105.32 261 106 C261.90621094 106.49628906 262.81242187 106.99257812 263.74609375 107.50390625 C270.2590951 111.1194547 276.39592106 114.75534252 282.1328125 119.5546875 C283.94914521 121.06302462 283.94914521 121.06302462 286.0703125 122.00390625 C288.21172467 123.10929107 289.24787569 124.19368064 290.75 126.0625 C292.4048417 128.08646679 294.05797905 130.06177895 295.84765625 131.96875 C309.2756821 146.27773977 318.73807671 164.88464109 323 184 C323.165 184.68677826 323.33 185.37355652 323.5 186.08114624 C325.48438328 195.36038253 325.35360536 204.63595826 325.4140625 214.078125 C325.43302106 215.9775822 325.45273943 217.87703195 325.47315979 219.776474 C325.52526394 224.8763607 325.5649978 229.97627053 325.60149765 235.07629013 C325.62504876 238.25658452 325.65176328 241.43683632 325.67959595 244.61709595 C325.80276453 258.70015173 325.90092 272.78325612 325.98189545 286.8666153 C325.99955711 289.92334826 326.01793648 292.98007622 326.03643799 296.0368042 C326.10706 307.91448576 326.15490461 319.79204584 326.1807785 331.66990662 C326.18743299 334.16240125 326.19751645 336.65486014 326.20855713 339.14733887 C326.40521946 386.51404623 326.40521946 386.51404623 321 402 C320.34 402.33 319.68 402.66 319 403 C318.30325196 404.97693245 318.30325196 404.97693245 317.75 407.375 C310.97935076 430.97171814 290.05698586 450.55060743 269.28417969 462.25170898 C251.15554288 472.08093826 232.60648467 474.0989126 212.32177734 474.20532227 C211.12225087 474.21525868 209.9227244 474.2251951 208.68684864 474.23543262 C205.41964983 474.26150055 202.15245661 474.28356007 198.88521552 474.3034873 C195.39573237 474.32548551 191.90628158 474.35186043 188.41682434 474.37759399 C183.23713571 474.41528963 178.05743811 474.45079757 172.87772065 474.48429108 C164.42118357 474.53917383 155.96482627 474.6070321 147.50844097 474.68151951 C91.9000294 475.17057536 91.9000294 475.17057536 67.78074646 474.63047218 C65.07701505 474.57156492 62.37327476 474.52124462 59.66931152 474.47428894 C57.97631777 474.44440003 56.28332459 474.41447845 54.59033203 474.38452148 C53.78774334 474.37054919 52.98515465 474.3565769 52.15824509 474.34218121 C48.33817516 474.26995503 44.52314853 474.16881122 40.70599365 474.00125122 C25.66772957 473.3450038 14.11357111 473.08531754 2.4082489 483.64909363 C1.15884597 484.85788122 -0.07633442 486.08160603 -1.29429626 487.32206726 C-3.75872618 489.74637317 -6.43840122 491.67980338 -9.25 493.6875 C-14.0430887 497.25766072 -18.74687568 500.92722289 -23.4362793 504.63134766 C-30.23105188 509.98896051 -37.11818032 515.22479039 -43.99853516 520.47167969 C-46.38794303 522.29623364 -48.77278733 524.12662508 -51.15527344 525.96020508 C-52.72601413 527.16904057 -54.29854069 528.37555438 -55.87109375 529.58203125 C-58.06217418 531.27526319 -60.24074068 532.97881746 -62.41015625 534.69921875 C-77.86530528 546.9111031 -77.86530528 546.9111031 -89.0234375 546.515625 C-93.8759893 545.67502547 -97.58306592 543.52575363 -101 540 C-103.47333832 535.76033651 -104.37154285 532.70377008 -104.34057617 527.81103516 C-104.34034958 526.61024323 -104.34012299 525.40945129 -104.33988953 524.17227173 C-104.32440567 522.89081268 -104.30892181 521.60935364 -104.29296875 520.2890625 C-104.28736685 518.95242796 -104.28309956 517.61578722 -104.28010559 516.27914429 C-104.26870334 512.77735096 -104.23927697 509.27593658 -104.20599365 505.77429199 C-104.17519235 502.19463221 -104.16157887 498.61491063 -104.14648438 495.03515625 C-104.11440204 488.02328278 -104.06326245 481.01165963 -104 474 C-105.32 474.33 -106.64 474.66 -108 475 C-107.67 474.01 -107.34 473.02 -107 472 C-112.94 470.02 -112.94 470.02 -119 468 C-119.33 468.66 -119.66 469.32 -120 470 C-120.66 469.34 -121.32 468.68 -122 468 C-124.58285977 466.27809349 -127.17134933 464.88316666 -129.93676758 463.48876953 C-146.97571112 454.79652601 -160.16979317 442.68065404 -170.96875 426.90625 C-172.85218448 424.03148464 -172.85218448 424.03148464 -175 422 C-175.99 420.515 -175.99 420.515 -177 419 C-177.99 418.34 -178.98 417.68 -180 417 C-180 416.34 -180 415.68 -180 415 C-179.34 415 -178.68 415 -178 415 C-178.59155331 413.68176698 -179.19871463 412.37052949 -179.8125 411.0625 C-180.31716797 409.96615234 -180.31716797 409.96615234 -180.83203125 408.84765625 C-181.93600134 406.66970511 -181.93600134 406.66970511 -185 406 C-185.6875 403.9375 -185.6875 403.9375 -186 402 C-185.34 401.67 -184.68 401.34 -184 401 C-184.33 400.0925 -184.66 399.185 -185 398.25 C-186 395 -186 395 -186 391 C-186.66 390.67 -187.32 390.34 -188 390 C-189.52732041 381.10917455 -189.3589061 371.93978313 -189.5625 362.9375 C-189.58434357 362.04435089 -189.60618713 361.15120178 -189.62869263 360.23098755 C-189.94153401 347.1529042 -190.02666831 334.08096578 -189.9921875 321 C-189.99055288 320.27414766 -189.98891827 319.54829533 -189.98723412 318.80044746 C-189.97058336 311.49621552 -189.94551471 304.19222313 -189.89009857 296.88817406 C-189.87557033 294.80244435 -189.86533504 292.71674377 -189.85684204 290.63098145 C-189.84572446 288.04922746 -189.82673912 285.4674923 -189.79891968 282.88586426 C-189.79558624 281.74202271 -189.79225281 280.59818115 -189.78881836 279.41967773 C-189.77763222 277.91545509 -189.77763222 277.91545509 -189.76622009 276.38084412 C-189.76413204 273.81278632 -189.76413204 273.81278632 -192 272 C-191.34 272 -190.68 272 -190 272 C-189.97685633 263.82036512 -189.95907456 255.64074387 -189.94818783 247.46108437 C-189.94296344 243.66317211 -189.93587383 239.8652822 -189.92456055 236.06738281 C-189.91371592 232.40399327 -189.90771981 228.74062527 -189.90512276 225.07722092 C-189.90327136 223.67774491 -189.89965618 222.27827012 -189.89426994 220.87880325 C-189.88703874 218.92263178 -189.88659177 216.96643874 -189.88647461 215.01025391 C-189.884254 213.8955069 -189.88203339 212.78075989 -189.87974548 211.63223267 C-189.82060851 209.02050967 -189.82060851 209.02050967 -191 207 C-190.34 207 -189.68 207 -189 207 C-189.01160156 206.28457031 -189.02320313 205.56914062 -189.03515625 204.83203125 C-189.17467793 189.42485109 -189.17467793 189.42485109 -188 182 C-187.01 181.01 -187.01 181.01 -186 180 C-185.07291919 177.46676646 -184.20985279 174.93832298 -183.375 172.375 C-180.37301841 163.4761664 -176.38008752 155.28975991 -172 147 C-171.67 146.34 -171.34 145.68 -171 145 C-169.824375 143.8553125 -169.824375 143.8553125 -168.625 142.6875 C-165.98261354 140.18928952 -165.98261354 140.18928952 -164.5 137.5 C-158.79203675 127.98672792 -146.99695252 119.40167775 -138 113 C-138.33 112.34 -138.66 111.68 -139 111 C-137.9790625 110.90203125 -136.958125 110.8040625 -135.90625 110.703125 C-131.82459385 109.96842689 -129.12130966 108.73309815 -125.5 106.75 C-115.83093359 101.66260368 -105.66016458 98.1692068 -94.85546875 96.359375 C-92.91585878 96.07000374 -92.91585878 96.07000374 -91 95 C-88.79161451 94.9046903 -86.58031411 94.87485231 -84.36987305 94.87402344 C-83.68820572 94.8721553 -83.00653839 94.87028717 -82.30421448 94.86836243 C-80.82007412 94.8643536 -79.33592757 94.86228315 -77.85178185 94.86190033 C-74.68052182 94.858478 -71.50946551 94.83709263 -68.33827686 94.81666946 C-62.4363491 94.77875216 -56.53463183 94.74736744 -50.63256836 94.74951172 C-46.52561254 94.75030582 -42.41939429 94.72663152 -38.31263161 94.6876297 C-36.7576105 94.6772638 -35.20250323 94.67557522 -33.64746666 94.68328094 C-24.43303298 94.72433491 -16.9603588 93.85583304 -8.44319153 90.07012939 C-6 89 -6 89 -4 89 C-3.67 88.34 -3.34 87.68 -3 87 C-1.00390625 86.4375 -1.00390625 86.4375 1.4375 86 C5.13840398 85.37748838 5.13840398 85.37748838 8 83 C7.566875 82.43667969 7.13375 81.87335938 6.6875 81.29296875 C5.01447574 79.01966959 3.50085898 76.70261792 2 74.3125 C1.3915625 73.36375 0.783125 72.415 0.15625 71.4375 C-1.50441822 68.82336828 -3.08467755 66.16853898 -4.65625 63.5 C-5.60380589 61.93728119 -6.55172234 60.37478094 -7.5 58.8125 C-7.93828125 58.04526611 -8.3765625 57.27803223 -8.828125 56.48754883 C-10.09902072 54.4249131 -11.24825183 52.67519436 -13 51 C-16.50263621 50.47916635 -16.50263621 50.47916635 -20 51 C-27.85380865 49.24135856 -33.41533356 45.67686612 -39 40 C-39.5671875 39.43410156 -40.134375 38.86820313 -40.71875 38.28515625 C-41.1415625 37.86105469 -41.564375 37.43695313 -42 37 C-42.33 37.66 -42.66 38.32 -43 39 C-42.979375 37.948125 -42.95875 36.89625 -42.9375 35.8125 C-42.87909718 32.20788629 -42.87909718 32.20788629 -43.5 29.5625 C-45.03863208 21.67701061 -43.66146039 15.1057155 -40 8 C-30.60694487 -4.96414751 -13.76105043 -8.08491525 0 0 Z M-42 34 C-41 36 -41 36 -41 36 Z M-178 415 C-177 417 -177 417 -177 417 Z " fill="#6C63D3" transform="translate(272,67)"/>
<path d="M0 0 C1.95504957 -0.00435834 3.91009743 -0.00954518 5.86514282 -0.01548767 C11.12758523 -0.02876653 16.38995535 -0.02946898 21.65241122 -0.02692437 C26.06556039 -0.02584732 30.47869537 -0.03075652 34.89184147 -0.03552979 C45.31185715 -0.04658598 55.73183677 -0.047084 66.15185547 -0.04101562 C76.85940415 -0.03497523 87.56682144 -0.04729756 98.27434772 -0.06858569 C107.50883833 -0.08626214 116.74328735 -0.09219366 125.97779423 -0.08894795 C131.47504926 -0.08714499 136.97221048 -0.08967212 142.46945 -0.10366249 C147.64149227 -0.11633555 152.8133311 -0.11420809 157.98537064 -0.1012516 C159.86977396 -0.09890698 161.75419205 -0.10154338 163.63857841 -0.10987473 C192.11444658 -0.22657635 219.61501877 6.42919349 241.00219727 26.2746582 C241.92516602 27.10610352 242.84813477 27.93754883 243.79907227 28.79418945 C253.84432056 38.270577 260.93309451 49.41155952 266.00219727 62.2746582 C266.29739258 63.01973633 266.59258789 63.76481445 266.89672852 64.5324707 C271.32171403 76.69573139 271.32728077 89.21032887 271.33813477 101.9699707 C271.34458108 103.77058004 271.35131072 105.57118837 271.35830688 107.37179565 C271.37021849 111.13208437 271.37399417 114.89228167 271.37280273 118.65258789 C271.37260016 123.41946282 271.39986641 128.18573751 271.43434715 132.95247078 C271.45682719 136.66934788 271.46063386 140.38608548 271.45958328 144.10302353 C271.46190905 145.85771623 271.47055678 147.61241464 271.48624802 149.36703873 C271.70981479 176.95188978 263.59206753 201.30440211 244.00219727 221.2746582 C242.83817383 222.49282227 242.83817383 222.49282227 241.65063477 223.7355957 C218.68669747 246.27295831 187.96027323 251.77551928 157.03100586 251.6628418 C155.1149211 251.66692038 153.19883869 251.67226939 151.28276062 251.67877197 C146.1402862 251.69229668 140.99799496 251.68720967 135.85551786 251.67763472 C130.43831154 251.66996243 125.02111939 251.67710429 119.60391235 251.68179321 C110.51431503 251.68722803 101.4247912 251.68011825 92.33520508 251.66577148 C81.86786497 251.64943957 71.40070016 251.65474669 60.93336427 251.6712507 C51.89838022 251.68491897 42.86344854 251.68675954 33.82845747 251.67893469 C28.45309749 251.67428867 23.07781958 251.67354802 17.70246506 251.68354416 C12.64774029 251.69229017 7.59323893 251.6860544 2.53853798 251.66886139 C0.69767564 251.66493735 -1.14320592 251.66595927 -2.98406029 251.67264938 C-17.58247168 251.72076162 -32.08710118 250.71081016 -45.87280273 245.4621582 C-46.57566406 245.20208984 -47.27852539 244.94202148 -48.00268555 244.67407227 C-73.20053446 235.08755701 -92.11077191 215.63843666 -103.14038086 191.32055664 C-107.31441082 181.36088379 -109.13932837 171.13587803 -109.17480469 160.40209961 C-109.18137589 159.52959564 -109.18794708 158.65709167 -109.19471741 157.75814819 C-109.21436573 154.88083797 -109.22609826 152.00357991 -109.23608398 149.1262207 C-109.24219728 147.64193636 -109.24219728 147.64193636 -109.24843407 146.12766647 C-109.26926548 140.88320884 -109.2835761 135.6387771 -109.29296875 130.39428711 C-109.3039868 125.01727554 -109.33834182 119.64068307 -109.37814045 114.26381874 C-109.40448373 110.09580803 -109.4126765 105.92789419 -109.41625023 101.75980759 C-109.42107582 99.7801673 -109.43257236 97.80053014 -109.45128822 95.82097244 C-109.58440262 80.80004842 -108.56390996 66.47281713 -101.24780273 52.9621582 C-100.90201172 52.30248047 -100.5562207 51.64280273 -100.19995117 50.96313477 C-87.71479043 27.72466241 -67.35581343 12.29884412 -42.56030273 3.9621582 C-28.582237 0.07878191 -14.38987483 -0.02146639 0 0 Z " fill="#C2B0FA" transform="translate(258.997802734375,213.725341796875)"/>
<path d="M0 0 C7.74441147 4.43129426 13.73344888 11.34836803 16.53125 19.875 C18.36483924 28.18727123 17.02139158 36.85447858 12.7109375 44.1953125 C11.24538522 46.2564903 9.70120398 48.12948188 8 50 C7.49726563 50.556875 6.99453125 51.11375 6.4765625 51.6875 C0.84770025 57.17907292 -7.19260301 60.01101898 -15 60.5 C-24.57032791 59.84477008 -32.13681429 56.00112958 -38.93359375 49.37890625 C-45.31269451 42.03510216 -46.49092604 34.20471336 -46.40234375 24.74609375 C-45.55615588 16.86750964 -41.8951658 10.37104366 -36.125 5 C-25.26443809 -3.54669939 -12.85189462 -5.66680878 0 0 Z " fill="#38327A" transform="translate(263,298)"/>
<path d="M0 0 C7.05464439 5.04057035 11.48976921 11.36920336 13.55859375 19.828125 C14.76691723 29.13346147 13.13718688 37.52620016 7.86328125 45.33984375 C2.57142559 51.82076009 -3.58804 55.21033625 -11.44140625 57.828125 C-22.47469632 58.69320301 -30.07581109 57.5762943 -38.69140625 50.578125 C-45.69255666 44.06510261 -49.43772067 36.65520541 -49.81640625 27.078125 C-49.58169421 17.07198035 -45.90115153 10.17735512 -38.97265625 3.03515625 C-27.93158007 -6.59170801 -12.5064549 -7.26290732 0 0 Z " fill="#39327B" transform="translate(448.44140625,299.171875)"/>
<path d="M0 0 C2.5491156 1.33443636 4.59359906 2.57352836 6.875 4.25 C8.09915359 5.08230737 9.32703519 5.90915816 10.55859375 6.73046875 C11.14882324 7.12540527 11.73905273 7.5203418 12.34716797 7.92724609 C20.75642855 13.38519159 29.1306109 14.02761535 39 13 C46.50592175 11.27944487 52.88911584 6.78981906 59.3125 2.70703125 C63.53921028 0.02233301 65.92158464 -0.43037418 71 0 C73.75329021 1.79562405 75.52627461 3.05254922 77 6 C77.57714685 13.04119153 77.57714685 13.04119153 75.546875 16.4140625 C72.08170747 19.93237677 68.21740829 22.14604434 63.9375 24.5625 C63.14150391 25.03107422 62.34550781 25.49964844 61.52539062 25.98242188 C51.47328517 31.74605893 42.63707143 34.6794921 31 34.5 C29.99710937 34.51546875 28.99421875 34.5309375 27.9609375 34.546875 C17.51258477 34.49287835 8.94983213 31.04724628 0.1875 25.5625 C-0.42802734 25.19318359 -1.04355469 24.82386719 -1.67773438 24.44335938 C-11.90821954 18.18356092 -11.90821954 18.18356092 -14 14 C-14.5811138 6.91041162 -14.5811138 6.91041162 -12.125 3.0625 C-8.47111703 -0.48391583 -4.924374 -0.68774918 0 0 Z " fill="#363076" transform="translate(307,385)"/>
<path d="M0 0 C0.66 0.33 1.32 0.66 2 1 C2.78254515 3.58682849 3.45411429 6.12214385 4.0625 8.75 C4.23587891 9.46671875 4.40925781 10.1834375 4.58789062 10.921875 C5.07326145 12.94518326 5.54865511 14.96882529 6 17 C6.17002533 17.70095795 6.34005066 18.40191589 6.51522827 19.12411499 C7.12903961 22.7655213 7.1769374 26.35292652 7.20532227 30.03466797 C7.21521337 30.83666783 7.22510447 31.6386677 7.2352953 32.46497059 C7.26699359 35.14067959 7.29178751 37.81640467 7.31640625 40.4921875 C7.33721287 42.40021614 7.35834871 44.30824122 7.37979126 46.21626282 C7.43603202 51.36556557 7.48551756 56.51491103 7.5328331 61.66430283 C7.56247272 64.8720473 7.59341317 68.07977695 7.62466431 71.2875061 C7.90608586 100.41521819 8.12411174 129.54351348 8.18122482 158.67258453 C8.18744046 161.16363894 8.19731949 163.65465325 8.20828247 166.14569092 C8.40479351 213.51526658 8.40479351 213.51526658 3 229 C2.34 229.33 1.68 229.66 1 230 C0.27306096 231.97888961 -0.39816251 233.97954558 -1 236 C-1.66 235.67 -2.32 235.34 -3 235 C-2.74605469 234.36835938 -2.49210938 233.73671875 -2.23046875 233.0859375 C3.16382581 219.06481233 4.4461881 206.17321191 4.40405273 191.34667969 C4.40976831 189.5117705 4.41673712 187.67686487 4.42485046 185.84196472 C4.44266871 180.89747594 4.44163464 175.95316573 4.43590808 171.00865459 C4.43279882 166.86162318 4.43892807 162.71462521 4.44494683 158.56759858 C4.45895412 148.77273877 4.4574633 138.97796624 4.44604492 129.18310547 C4.43457565 119.12313141 4.44862813 109.06342433 4.4754414 99.00348544 C4.49769231 90.32611696 4.50421448 81.64883169 4.49836498 72.97143674 C4.49501559 67.806645 4.49727443 62.64202416 4.51461601 57.47725677 C4.530233 52.61460384 4.5259684 47.75234205 4.50731087 42.88970375 C4.50366498 41.12021515 4.50661426 39.3506966 4.51719666 37.58123589 C4.5766664 26.80197553 3.5093347 17.02055522 0.85736179 6.55649185 C0 3 0 3 0 0 Z " fill="#675CBD" transform="translate(590,240)"/>
<path d="M0 0 C0.33 0 0.66 0 1 0 C1 61.38 1 122.76 1 186 C0.67 186 0.34 186 0 186 C-1.24564372 179.22526865 -1.37387159 172.49475286 -1.5625 165.625 C-1.58434357 164.89009338 -1.60618713 164.15518677 -1.62869263 163.39801025 C-1.97410366 151.4162991 -2.02408656 139.43875122 -1.9921875 127.453125 C-1.99055288 126.73275936 -1.98891827 126.01239372 -1.98723412 125.27019882 C-1.97043032 117.93585068 -1.94520036 110.60173904 -1.89009857 103.2675705 C-1.87090967 100.4827752 -1.8595158 97.69798197 -1.84975052 94.91313934 C-1.84001287 92.96354831 -1.81956085 91.01402025 -1.79891968 89.06451416 C-1.79558624 87.89837585 -1.79225281 86.73223755 -1.78881836 85.53076172 C-1.77763222 83.99486893 -1.77763222 83.99486893 -1.76622009 82.427948 C-1.75772142 79.81822541 -1.75772142 79.81822541 -4 78 C-3.34 78 -2.68 78 -2 78 C-1.97685633 69.82036512 -1.95907456 61.64074387 -1.94818783 53.46108437 C-1.94296344 49.66317211 -1.93587383 45.8652822 -1.92456055 42.06738281 C-1.91371592 38.40399327 -1.90771981 34.74062527 -1.90512276 31.07722092 C-1.90327136 29.67774491 -1.89965618 28.27827012 -1.89426994 26.87880325 C-1.88703874 24.92263178 -1.88659177 22.96643874 -1.88647461 21.01025391 C-1.884254 19.8955069 -1.88203339 18.78075989 -1.87974548 17.63223267 C-1.82060851 15.02050967 -1.82060851 15.02050967 -3 13 C-2.34 13 -1.68 13 -1 13 C-1.01160156 12.14535156 -1.02320312 11.29070312 -1.03515625 10.41015625 C-1.04869141 8.75306641 -1.04869141 8.75306641 -1.0625 7.0625 C-1.07410156 5.96035156 -1.08570312 4.85820312 -1.09765625 3.72265625 C-1 1 -1 1 0 0 Z " fill="#6B5EBA" transform="translate(84,261)"/>
<path d="M0 0 C70.29 0 140.58 0 213 0 C209.71790403 2.18806398 208.7465132 2.25535001 204.93804932 2.2784729 C203.36456474 2.29521812 203.36456474 2.29521812 201.7592926 2.31230164 C200.60670456 2.31446182 199.45411652 2.31662201 198.26660156 2.31884766 C197.0506279 2.32889328 195.83465424 2.3389389 194.58183289 2.34928894 C191.22454416 2.37499091 187.86742742 2.39181056 184.51007938 2.40471697 C180.93202719 2.42049405 177.35405609 2.44729781 173.77606201 2.4727478 C167.70278437 2.514406 161.62950143 2.54877625 155.55615234 2.578125 C147.23681743 2.61834052 138.9176065 2.67141323 130.59836483 2.72738123 C112.06569913 2.85101483 93.53296263 2.93631398 75 3 C74.25344021 3.00261778 73.50688042 3.00523556 72.7376976 3.00793266 C63.13927496 3.04138049 53.54087875 3.06672816 43.9424057 3.07957077 C41.21197353 3.08330191 38.48156013 3.08917971 35.75113678 3.09703445 C31.98349157 3.10669486 28.21589838 3.10969261 24.44824219 3.11083984 C22.81365681 3.1167898 22.81365681 3.1167898 21.1460495 3.12285995 C14.05171371 3.11519372 7.05992491 2.69345859 0 2 C0 1.34 0 0.68 0 0 Z " fill="#7566C1" transform="translate(287,539)"/>
<path d="M0 0 C0.99 0.495 0.99 0.495 2 1 C2.78254515 3.58682849 3.45411429 6.12214385 4.0625 8.75 C4.23587891 9.46671875 4.40925781 10.1834375 4.58789062 10.921875 C5.07326145 12.94518326 5.54865511 14.96882529 6 17 C6.16969803 17.67935608 6.33939606 18.35871216 6.51423645 19.05865479 C7.17738797 23.07410126 7.18616035 27.0182126 7.22119141 31.08203125 C7.23845024 32.44168755 7.23845024 32.44168755 7.25605774 33.82881165 C7.29271046 36.8233403 7.32239676 39.81788972 7.3515625 42.8125 C7.37469987 44.90413689 7.39809037 46.99577099 7.42172241 49.08740234 C7.47016392 53.47539651 7.51508066 57.86340959 7.55761719 62.25146484 C7.61218145 67.84506111 7.67609042 73.43850409 7.74279213 79.03196716 C7.79318227 83.35593782 7.83817296 87.67995245 7.88163376 92.0039978 C7.90304088 94.06425841 7.92616113 96.12450201 7.9510994 98.1847229 C8.07743353 108.8481682 8.1350287 119.38161674 7 130 C6.34 130 5.68 130 5 130 C4.99780016 129.18225318 4.99780016 129.18225318 4.99555588 128.34798622 C4.95827933 114.99754395 4.89874748 101.64735438 4.81609726 88.29711342 C4.77677945 81.84064419 4.74451439 75.38430817 4.72900391 68.92773438 C4.71373347 62.68352232 4.67910574 56.43967685 4.63169098 50.19562912 C4.61698358 47.82695091 4.60896519 45.45822033 4.60811615 43.08949661 C4.59902075 30.42468064 4.11273419 18.61323487 0.85357666 6.33041382 C0 3 0 3 0 0 Z " fill="#574EB9" transform="translate(590,240)"/>
<path d="M0 0 C4.2489267 0.53111584 7.92520399 1.61190409 11.875 3.18359375 C14.55450486 4.21303588 17.27524079 5.09816595 20 6 C20.01030746 6.71917099 20.02061493 7.43834198 20.03123474 8.17930603 C20.12962129 14.99014783 20.23219022 21.80091551 20.33933926 28.61162472 C20.39426791 32.11222913 20.44763608 35.61284222 20.49731445 39.11352539 C20.55463 43.14738079 20.61895497 47.181099 20.68359375 51.21484375 C20.70030624 52.45894516 20.71701874 53.70304657 20.73423767 54.98484802 C20.84250025 61.39283958 21.16122041 67.64497601 22 74 C19.42297154 71.53501626 18.05565613 70.16553727 17.87974548 66.48165894 C17.8830764 64.88948044 17.8830764 64.88948044 17.88647461 63.26513672 C17.88655014 62.06404266 17.88662567 60.86294861 17.88670349 59.62545776 C17.89186478 58.32335358 17.89702606 57.02124939 17.90234375 55.6796875 C17.90420862 54.33733167 17.9056322 52.99497516 17.90663147 51.65261841 C17.91045122 48.11804325 17.92027688 44.58350913 17.93133545 41.0489502 C17.94156122 37.44279536 17.94613159 33.8366339 17.95117188 30.23046875 C17.96189962 23.15362904 17.97896955 16.0768172 18 9 C16.68 9.33 15.36 9.66 14 10 C14.33 9.01 14.66 8.02 15 7 C11.04 5.68 7.08 4.36 3 3 C2.67 3.66 2.34 4.32 2 5 C1.34 4.34 0.68 3.68 0 3 C0 2.01 0 1.02 0 0 Z " fill="#5B50BF" transform="translate(150,532)"/>
<path d="M0 0 C0.99 0.33 1.98 0.66 3 1 C3 29.05 3 57.1 3 86 C2.67 86 2.34 86 2 86 C1.18991701 81.66830049 0.81846529 77.48897463 0.68359375 73.0859375 C0.66276733 72.41404388 0.64194092 71.74215027 0.6204834 71.04989624 C0.55412 68.8250476 0.49521882 66.60008875 0.4375 64.375 C0.41632111 63.60853149 0.39514221 62.84206299 0.37332153 62.05236816 C-0.188031 41.37185383 -0.09466301 20.68605223 0 0 Z " fill="#594DB9" transform="translate(82,361)"/>
<path d="M0 0 C3.04410481 2.85961361 5.62844153 5.77419743 8.125 9.125 C15.50448099 18.81232484 15.50448099 18.81232484 25 26 C25 26.66 25 27.32 25 28 C25.69222656 28.2475 26.38445312 28.495 27.09765625 28.75 C31.62374859 30.69932645 35.60805448 33.46727466 39.74609375 36.125 C42.80407925 37.88710449 45.6209363 39.02144761 49 40 C49 40.66 49 41.32 49 42 C32.50586273 40.20336175 16.33684113 24.17241908 6.44140625 11.87109375 C0 3.59937641 0 3.59937641 0 0 Z " fill="#6559C0" transform="translate(100,490)"/>
<path d="M0 0 C1.3430999 -0.00356905 2.68619895 -0.00747309 4.02929688 -0.01171875 C5.28935547 -0.01042969 6.54941406 -0.00914062 7.84765625 -0.0078125 C9.56674194 -0.00612061 9.56674194 -0.00612061 11.32055664 -0.00439453 C13.9375 0.125 13.9375 0.125 14.9375 1.125 C17.2827769 1.68450364 19.63905796 2.19829579 22 2.6875 C23.29035156 2.95691406 24.58070313 3.22632813 25.91015625 3.50390625 C27.40869141 3.81134766 27.40869141 3.81134766 28.9375 4.125 C28.9375 4.785 28.9375 5.445 28.9375 6.125 C28.14730469 5.98191406 27.35710937 5.83882812 26.54296875 5.69140625 C9.08347133 2.94858163 -8.43167425 2.86221539 -26.0625 3.125 C-25.7325 2.465 -25.4025 1.805 -25.0625 1.125 C-17.04798708 -0.74516447 -8.16507506 -0.02438549 0 0 Z " fill="#675BC4" transform="translate(343.0625,140.875)"/>
<path d="M0 0 C0.61230469 0.19335938 1.22460938 0.38671875 1.85546875 0.5859375 C0.2621875 1.43865234 0.2621875 1.43865234 -1.36328125 2.30859375 C-11.7061119 7.91431952 -11.7061119 7.91431952 -20.76171875 15.37109375 C-22.14453125 16.5859375 -22.14453125 16.5859375 -24.14453125 16.5859375 C-23.81453125 17.5759375 -23.48453125 18.5659375 -23.14453125 19.5859375 C-23.68980469 19.64007813 -24.23507813 19.69421875 -24.796875 19.75 C-28.20407259 20.96321179 -30.27034697 23.39600668 -32.70703125 25.9609375 C-33.18849609 26.4559375 -33.66996094 26.9509375 -34.16601562 27.4609375 C-35.49745545 28.83083707 -36.82127328 30.20813302 -38.14453125 31.5859375 C-39.14135162 32.58910705 -40.13946806 33.59102646 -41.14453125 34.5859375 C-37.72701357 22.43476353 -22.95268166 12.49941888 -13.14453125 5.5859375 C-13.47453125 4.9259375 -13.80453125 4.2659375 -14.14453125 3.5859375 C-13.09265625 3.4828125 -12.04078125 3.3796875 -10.95703125 3.2734375 C-7.18192509 2.82712625 -7.18192509 2.82712625 -4.45703125 0.9609375 C-2.14453125 -0.4140625 -2.14453125 -0.4140625 0 0 Z " fill="#6257BF" transform="translate(147.14453125,174.4140625)"/>
<path d="M0 0 C0.66 0.33 1.32 0.66 2 1 C-5.08561284 7.05077248 -12.18125698 12.90081977 -20 18 C-20.94875 18.639375 -21.8975 19.27875 -22.875 19.9375 C-28.42354763 21.82400619 -34.79309749 22.24086177 -40.33203125 20.09765625 C-42.25 19 -42.25 19 -45 17 C-44.505 15.515 -44.505 15.515 -44 14 C-43.62875 14.45375 -43.2575 14.9075 -42.875 15.375 C-39.86049097 17.98757449 -36.89048495 18.96499102 -32.890625 19.0390625 C-23.35492074 18.34854598 -16.73265211 13.33333476 -9.625 7.3125 C-8.22259757 6.14043771 -6.81900902 4.96979273 -5.4140625 3.80078125 C-4.8051416 3.28684814 -4.1962207 2.77291504 -3.56884766 2.2434082 C-2 1 -2 1 0 0 Z " fill="#6256BE" transform="translate(218,592)"/>
<path d="M0 0 C6.38214925 0.15955373 9.77497201 3.63955445 14 8 C19.94012215 15.19067418 20.33675883 22.63720847 19.58203125 31.6171875 C18.92903267 34.29053738 18.10576049 35.2858769 16 37 C16.09539062 36.09378906 16.19078125 35.18757813 16.2890625 34.25390625 C17.14656138 24.83138951 17.73235335 16.44597308 11.70703125 8.63671875 C8.84049524 5.88825516 5.48086157 4.05816384 2.01171875 2.1640625 C1.34785156 1.77992187 0.68398438 1.39578125 0 1 C0 0.67 0 0.34 0 0 Z " fill="#6A5FC3" transform="translate(264,65)"/>
<path d="M0 0 C-0.65226562 0.32871094 -1.30453125 0.65742187 -1.9765625 0.99609375 C-8.47705676 4.53397337 -13.1365094 8.02149318 -16 15 C-17.01322894 19.64806478 -17.60905473 24.26147367 -18 29 C-18.66 28.67 -19.32 28.34 -20 28 C-20.59388422 20.13103408 -19.07917433 12.8931364 -14.09375 6.58984375 C-5.70223206 -2.03651145 -5.70223206 -2.03651145 0 0 Z " fill="#6C61C1" transform="translate(248,66)"/>
<path d="M0 0 C0.68359375 1.6484375 0.68359375 1.6484375 1 4 C-2.54225009 12.18920191 -8.2725768 19.24211991 -14 26 C-15.00029666 27.20808776 -16.0003468 28.41637974 -17 29.625 C-17.66 30.40875 -18.32 31.1925 -19 32 C-19.99 31.67 -20.98 31.34 -22 31 C-21.50628906 30.54109375 -21.01257813 30.0821875 -20.50390625 29.609375 C-19.54291016 28.68898438 -19.54291016 28.68898438 -18.5625 27.75 C-17.92441406 27.14671875 -17.28632812 26.5434375 -16.62890625 25.921875 C-14.85941214 24.12329403 -14.85941214 24.12329403 -14.46484375 21.828125 C-14.31144531 21.22484375 -14.15804687 20.6215625 -14 20 C-13.01 19.67 -12.02 19.34 -11 19 C-9.55120757 16.95825422 -8.26198759 14.96404651 -7 12.8125 C-6.319375 11.68457031 -5.63875 10.55664062 -4.9375 9.39453125 C-3.17612951 6.30858174 -1.55170599 3.19554452 0 0 Z " fill="#6357BE" transform="translate(586,478)"/>
<path d="M0 0 C0.33 0.99 0.66 1.98 1 3 C-0.53997457 5.57870252 -2.11793774 7.9506809 -3.875 10.375 C-4.89214849 11.80973889 -5.90907206 13.24463727 -6.92578125 14.6796875 C-7.44092285 15.39995117 -7.95606445 16.12021484 -8.48681641 16.86230469 C-9.90943486 18.87205738 -11.29607696 20.900701 -12.66796875 22.9453125 C-13.07354004 23.54682129 -13.47911133 24.14833008 -13.89697266 24.76806641 C-15.00689788 26.41737715 -16.11482994 28.0680287 -17.22265625 29.71875 C-17.80917969 30.4715625 -18.39570313 31.224375 -19 32 C-19.66 32 -20.32 32 -21 32 C-19.44293057 27.26578891 -16.79330156 23.78636398 -13.8125 19.875 C-9.69275786 14.37704639 -5.84911487 8.82703322 -2.2421875 2.9765625 C-1 1 -1 1 0 0 Z " fill="#6357C3" transform="translate(417,119)"/>
<path d="M0 0 C0.33 0 0.66 0 1 0 C1 1.98 1 3.96 1 6 C1.66 6 2.32 6 3 6 C3.20496094 7.05960937 3.40992187 8.11921875 3.62109375 9.2109375 C3.89307666 10.59898822 4.16522044 11.98700744 4.4375 13.375 C4.57220703 14.07367188 4.70691406 14.77234375 4.84570312 15.4921875 C5.5772422 19.35628734 5.5772422 19.35628734 7 23 C7.35294118 29.47058824 7.35294118 29.47058824 5 33 C4.34 31.35 3.68 29.7 3 28 C3.66 27.67 4.32 27.34 5 27 C4.67 26.0925 4.34 25.185 4 24.25 C3 21 3 21 3 17 C2.34 16.67 1.68 16.34 1 16 C0.68758545 13.28553021 0.48663408 10.66090639 0.375 7.9375 C0.33632812 7.17888672 0.29765625 6.42027344 0.2578125 5.63867188 C0.16326438 3.75952805 0.08053244 1.87979664 0 0 Z " fill="#7668BC" transform="translate(83,441)"/>
<path d="M0 0 C0.66 0.33 1.32 0.66 2 1 C1.505 1.721875 1.01 2.44375 0.5 3.1875 C-1.07919285 6.14848659 -1.28178312 7.71253029 -1 11 C-1.99 11.33 -2.98 11.66 -4 12 C-5.05567531 13.60490475 -5.05567531 13.60490475 -5.82421875 15.59765625 C-6.13037109 16.31630859 -6.43652344 17.03496094 -6.75195312 17.77539062 C-7.06068359 18.53013672 -7.36941406 19.28488281 -7.6875 20.0625 C-8.00783203 20.82111328 -8.32816406 21.57972656 -8.65820312 22.36132812 C-9.44850702 24.23682542 -10.22552197 26.1179123 -11 28 C-13.24264341 20.50225175 -7.25487904 12.31307468 -3.75 5.8125 C-1.17684887 1.17684887 -1.17684887 1.17684887 0 0 Z " fill="#6156BD" transform="translate(101,214)"/>
<path d="M0 0 C4.02079245 1.34026415 4.94735557 3.84475585 6.875 7.375 C7.22361084 8.0026123 7.57222168 8.63022461 7.93139648 9.27685547 C16.25520011 24.44775189 16.25520011 24.44775189 15.62109375 28.3046875 C15.41613281 28.86414063 15.21117187 29.42359375 15 30 C14.76925781 29.46632812 14.53851562 28.93265625 14.30078125 28.3828125 C10.52017671 19.74570016 6.60395315 11.52446792 1.13671875 3.8125 C0 2 0 2 0 0 Z " fill="#5B50BB" transform="translate(574,209)"/>
<path d="M0 0 C-1.10494377 3.31483132 -1.70484127 3.7969511 -4.421875 5.77734375 C-5.11796875 6.29103516 -5.8140625 6.80472656 -6.53125 7.33398438 C-7.2634375 7.86314453 -7.995625 8.39230469 -8.75 8.9375 C-10.18278536 9.98760798 -11.61508789 11.03837509 -13.046875 12.08984375 C-13.72943359 12.58468262 -14.41199219 13.07952148 -15.11523438 13.58935547 C-16.73960313 14.80510711 -18.29228508 16.11557759 -19.828125 17.44140625 C-20.54484375 17.95574219 -21.2615625 18.47007812 -22 19 C-22.99 18.67 -23.98 18.34 -25 18 C-21.57075178 15.30245481 -18.14036557 12.60640505 -14.70703125 9.9140625 C-12.50876279 8.18929311 -10.31922552 6.45575192 -8.13671875 4.7109375 C-7.34910156 4.08445312 -6.56148438 3.45796875 -5.75 2.8125 C-5.06421875 2.26207031 -4.3784375 1.71164062 -3.671875 1.14453125 C-2 0 -2 0 0 0 Z " fill="#665AC3" transform="translate(287,540)"/>
<path d="M0 0 C3.59959007 3.28729687 6.05656459 6.90762625 8.625 11 C9.01945312 11.61617187 9.41390625 12.23234375 9.8203125 12.8671875 C11.70963319 15.84159102 13.51320429 18.80258988 15 22 C14.34 22.33 13.68 22.66 13 23 C13 22.01 13 21.02 13 20 C12.34 20 11.68 20 11 20 C8.5217861 17.05798629 6.47382128 13.78218115 4.375 10.5625 C3.76398438 9.63566406 3.15296875 8.70882812 2.5234375 7.75390625 C1.04595415 5.08307097 0.40339583 3.00366355 0 0 Z " fill="#6156C1" transform="translate(269,130)"/>
<path d="M0 0 C3.7599488 3.5086873 6.76061899 7.44702457 9.8125 11.5625 C10.32748047 12.23474609 10.84246094 12.90699219 11.37304688 13.59960938 C11.85451172 14.24865234 12.33597656 14.89769531 12.83203125 15.56640625 C13.27264893 16.15365479 13.7132666 16.74090332 14.16723633 17.34594727 C14.44204834 17.89178467 14.71686035 18.43762207 15 19 C14.67 19.99 14.34 20.98 14 22 C12.04034952 19.39682213 10.08251018 16.79228758 8.125 14.1875 C7.56941406 13.44951172 7.01382812 12.71152344 6.44140625 11.95117188 C5.90644531 11.23896484 5.37148438 10.52675781 4.8203125 9.79296875 C4.08192139 8.81106567 4.08192139 8.81106567 3.32861328 7.80932617 C0 3.27636898 0 3.27636898 0 0 Z " fill="#6157C2" transform="translate(278,104)"/>
<path d="M0 0 C0 0.66 0 1.32 0 2 C-2.04967534 3.72682185 -4.10116271 5.34312715 -6.25 6.9375 C-7.12978516 7.60168945 -7.12978516 7.60168945 -8.02734375 8.27929688 C-9.1683406 9.13953158 -10.31341851 9.99438516 -11.46289062 10.84326172 C-12.75235815 11.81363928 -13.99923161 12.84026294 -15.234375 13.87890625 C-15.81703125 14.24886719 -16.3996875 14.61882813 -17 15 C-17.99 14.67 -18.98 14.34 -20 14 C-17.04777314 11.65885474 -14.08725012 9.32844546 -11.125 7 C-10.28324219 6.33226562 -9.44148437 5.66453125 -8.57421875 4.9765625 C-7.76855469 4.34492187 -6.96289062 3.71328125 -6.1328125 3.0625 C-5.38918457 2.47597656 -4.64555664 1.88945313 -3.87939453 1.28515625 C-2 0 -2 0 0 0 Z " fill="#6458C2" transform="translate(256,564)"/>
<path d="M0 0 C13.6332574 -0.55353075 13.6332574 -0.55353075 20 3 C20 3.66 20 4.32 20 5 C19.113125 4.690625 18.22625 4.38125 17.3125 4.0625 C11.69122053 2.42489586 5.81447802 2.33225589 0 2 C0 1.34 0 0.68 0 0 Z " fill="#695DC2" transform="translate(417,63)"/>
<path d="M0 0 C4.58420796 1.30880493 7.92722076 3.10209606 11.75 5.9375 C12.69359375 6.62714844 13.6371875 7.31679687 14.609375 8.02734375 C17 10 17 10 19 13 C15.18913799 11.63654311 12.20215324 9.88163266 8.9375 7.5 C6.03538098 5.38936799 3.26143165 3.50643494 0 2 C0 1.34 0 0.68 0 0 Z " fill="#5F54BF" transform="translate(538,177)"/>
<path d="M0 0 C4.95 0 9.9 0 15 0 C15 0.66 15 1.32 15 2 C9.92523206 3.26305335 5.27203646 4.27036084 0 4 C0 2.68 0 1.36 0 0 Z " fill="#6A5CC5" transform="translate(419,114)"/>
<path d="M0 0 C2.10241603 -0.13496251 4.2072961 -0.23197307 6.3125 -0.3125 C7.48425781 -0.37050781 8.65601563 -0.42851563 9.86328125 -0.48828125 C13 0 13 0 14.91796875 2.51953125 C15.27503906 3.33808594 15.63210938 4.15664062 16 5 C15.01 5.495 15.01 5.495 14 6 C13.41605469 5.27490234 13.41605469 5.27490234 12.8203125 4.53515625 C10.45611544 2.54131624 8.93099018 2.57559868 5.875 2.4375 C3.1796875 2.30859375 3.1796875 2.30859375 1 2 C0.67 1.34 0.34 0.68 0 0 Z " fill="#6A5CC3" transform="translate(247,115)"/>
<path d="M0 0 C0.66 0 1.32 0 2 0 C1.43580388 3.84740968 0.36679752 6.41398441 -1.8125 9.625 C-2.31394531 10.38039063 -2.81539063 11.13578125 -3.33203125 11.9140625 C-5.07145364 14.08935888 -6.5948792 15.59189391 -9 17 C-9.99 16.67 -10.98 16.34 -12 16 C-11.45730469 15.55269531 -10.91460937 15.10539062 -10.35546875 14.64453125 C-5.30203075 10.37414851 -1.2519327 6.76043656 0 0 Z " fill="#6157BF" transform="translate(448,96)"/>
<path d="M0 0 C3.88397689 1.55002747 6.02979619 4.00476621 8.75 7.125 C9.94882812 8.49011719 9.94882812 8.49011719 11.171875 9.8828125 C12.07679688 10.93082031 12.07679688 10.93082031 13 12 C12.67 12.99 12.34 13.98 12 15 C11.38511719 14.31292969 10.77023437 13.62585938 10.13671875 12.91796875 C9.32847656 12.01691406 8.52023437 11.11585938 7.6875 10.1875 C6.88699219 9.29417969 6.08648438 8.40085938 5.26171875 7.48046875 C3.95386936 6.04612616 2.61592469 4.63600706 1.20703125 3.30078125 C0 2 0 2 0 0 Z " fill="#6458C0" transform="translate(560,193)"/>
<path d="M0 0 C-3.25641668 1.80476105 -6.45336795 2.73948805 -10.0625 3.625 C-11.62677734 4.01558594 -11.62677734 4.01558594 -13.22265625 4.4140625 C-16 5 -16 5 -19 5 C-19 4.34 -19 3.68 -19 3 C-12.43345544 0.6969113 -6.96327638 -0.33693273 0 0 Z " fill="#665BC3" transform="translate(178,165)"/>
<path d="M0 0 C0.61230469 0.19335938 1.22460938 0.38671875 1.85546875 0.5859375 C-0.05179876 1.78847566 -1.97073245 2.97252699 -3.89453125 4.1484375 C-4.961875 4.80972656 -6.02921875 5.47101563 -7.12890625 6.15234375 C-10.14453125 7.5859375 -10.14453125 7.5859375 -12.53515625 7.30078125 C-13.06625 7.06488281 -13.59734375 6.82898438 -14.14453125 6.5859375 C-14.14453125 5.5859375 -14.14453125 4.5859375 -14.14453125 3.5859375 C-13.09265625 3.4828125 -12.04078125 3.3796875 -10.95703125 3.2734375 C-7.18192509 2.82712625 -7.18192509 2.82712625 -4.45703125 0.9609375 C-2.14453125 -0.4140625 -2.14453125 -0.4140625 0 0 Z " fill="#6C60BE" transform="translate(147.14453125,174.4140625)"/>
<path d="M0 0 C2.58243645 2.58243645 3.29443209 4.41989619 4 8 C2.4453125 10.7734375 2.4453125 10.7734375 0.125 13.375 C-1.01582031 14.68597656 -1.01582031 14.68597656 -2.1796875 16.0234375 C-2.78039062 16.67570312 -3.38109375 17.32796875 -4 18 C-4.33 17.01 -4.66 16.02 -5 15 C-3.75 13.203125 -3.75 13.203125 -2 11.25 C0.34956979 8.40360394 0.34956979 8.40360394 1.1796875 4.921875 C0.88425497 2.79693144 0.88425497 2.79693144 0 0 Z " fill="#6157C3" transform="translate(398,99)"/>
<path d="M0 0 C-5.445 4.455 -5.445 4.455 -11 9 C-11.33 8.34 -11.66 7.68 -12 7 C-5.17241379 -1.72413793 -5.17241379 -1.72413793 0 0 Z " fill="#665AC3" transform="translate(413,67)"/>
<path d="M0 0 C0.680625 0.70125 1.36125 1.4025 2.0625 2.125 C5.20780513 5.27934337 8.5888386 8.13934304 12 11 C11.01 11.33 10.02 11.66 9 12 C6.9921875 10.7421875 6.9921875 10.7421875 4.875 8.875 C3.81925781 7.97394531 3.81925781 7.97394531 2.7421875 7.0546875 C0.735967 4.68860682 0.34774258 3.04538201 0 0 Z " fill="#6558C3" transform="translate(232,102)"/>
<path d="M0 0 C6.38520354 0.15963009 9.66008365 3.78124883 14 8 C13.67 8.99 13.34 9.98 13 11 C12.34 10.278125 11.68 9.55625 11 8.8125 C8.18580402 5.96586372 5.01643633 4.02623638 1.57421875 2.015625 C1.05472656 1.68046875 0.53523438 1.3453125 0 1 C0 0.67 0 0.34 0 0 Z " fill="#6256C1" transform="translate(264,65)"/>
<path d="M0 0 C0.66 0.33 1.32 0.66 2 1 C-2.95 7.435 -2.95 7.435 -8 14 C-8.66 13.67 -9.32 13.34 -10 13 C-8.5217985 11.02010587 -7.0424882 9.04105782 -5.5625 7.0625 C-5.14162109 6.49853516 -4.72074219 5.93457031 -4.28710938 5.35351562 C-1.11328125 1.11328125 -1.11328125 1.11328125 0 0 Z " fill="#5E53C1" transform="translate(390,119)"/>
<path d="M0 0 C3.82053924 1.27351308 4.23021375 2.62637525 6.1875 6.0625 C6.71730469 6.98160156 7.24710938 7.90070313 7.79296875 8.84765625 C8.19128906 9.55792969 8.58960938 10.26820313 9 11 C8.34 11.66 7.68 12.32 7 13 C5.82786955 11.21190303 4.66244474 9.41940875 3.5 7.625 C2.8503125 6.62726563 2.200625 5.62953125 1.53125 4.6015625 C0 2 0 2 0 0 Z " fill="#6559BF" transform="translate(574,209)"/>
<path d="M0 0 C-0.68707031 0.39832031 -1.37414062 0.79664062 -2.08203125 1.20703125 C-2.98308594 1.73683594 -3.88414062 2.26664062 -4.8125 2.8125 C-5.70582031 3.33457031 -6.59914062 3.85664062 -7.51953125 4.39453125 C-9.66831987 5.78532199 -11.29361617 7.1122066 -13 9 C-12.7416116 5.51175659 -11.73533264 4.75785753 -9.0625 2.3125 C-4.29400387 -1.28820116 -4.29400387 -1.28820116 0 0 Z " fill="#5D52C0" transform="translate(248,66)"/>
<path d="M0 0 C3.3 0 6.6 0 10 0 C10 0.33 10 0.66 10 1 C11.65 1.33 13.3 1.66 15 2 C15 2.33 15 2.66 15 3 C13.25034642 3.05429959 11.50020213 3.09292823 9.75 3.125 C8.77546875 3.14820313 7.8009375 3.17140625 6.796875 3.1953125 C3.9803502 2.99862781 2.39050964 2.44568916 0 1 C0 0.67 0 0.34 0 0 Z " fill="#191643" transform="translate(419,354)"/>
<path d="M0 0 C0.99 0.33 1.98 0.66 3 1 C4.1875 3.5625 4.1875 3.5625 5 6 C5.66 6 6.32 6 7 6 C7.33 7.65 7.66 9.3 8 11 C2.19794344 5.35475578 2.19794344 5.35475578 0 2 C0 1.34 0 0.68 0 0 Z " fill="#6257C2" transform="translate(294,127)"/>
<path d="M0 0 C0.33 0.99 0.66 1.98 1 3 C-3.39453125 7.00390625 -3.39453125 7.00390625 -5 8 C-5.99 7.67 -6.98 7.34 -8 7 C-7.3125 5.125 -7.3125 5.125 -6 3 C-3.4375 1.8125 -3.4375 1.8125 -1 1 C-0.67 0.67 -0.34 0.34 0 0 Z " fill="#6559C1" transform="translate(562,511)"/>
<path d="M0 0 C0 0.33 0 0.66 0 1 C-1.58129029 1.22331199 -3.16521089 1.42804644 -4.75 1.625 C-6.07257813 1.79902344 -6.07257813 1.79902344 -7.421875 1.9765625 C-10.22859878 2.00207817 -11.63384866 1.44843844 -14 0 C-8.53190155 -2.4606443 -5.51272919 -1.71084699 0 0 Z " fill="#6E64C4" transform="translate(188,164)"/>
<path d="M0 0 C0 0.66 0 1.32 0 2 C-1.64453125 3.54296875 -1.64453125 3.54296875 -3.8125 5.1875 C-4.52019531 5.73792969 -5.22789062 6.28835938 -5.95703125 6.85546875 C-6.63121094 7.23316406 -7.30539063 7.61085938 -8 8 C-8.99 7.67 -9.98 7.34 -11 7 C-9.54634731 5.82750647 -8.08692581 4.66216184 -6.625 3.5 C-5.40683594 2.52546875 -5.40683594 2.52546875 -4.1640625 1.53125 C-2 0 -2 0 0 0 Z " fill="#5F55C2" transform="translate(234,581)"/>
<path d="M0 0 C0.66 0.66 1.32 1.32 2 2 C1.9765625 4.6015625 1.9765625 4.6015625 1.625 7.625 C1.51414063 8.62789062 1.40328125 9.63078125 1.2890625 10.6640625 C1.19367188 11.43492187 1.09828125 12.20578125 1 13 C0.67 13 0.34 13 0 13 C0 10.03 0 7.06 0 4 C-1.32 4.33 -2.64 4.66 -4 5 C-3.6875 3.0625 -3.6875 3.0625 -3 1 C-2.01 0.67 -1.02 0.34 0 0 Z " fill="#7568C2" transform="translate(168,537)"/>
<path d="M0 0 C0.680625 0.639375 1.36125 1.27875 2.0625 1.9375 C5.46408839 4.3258493 7.90433701 4.67877153 12 5 C12 5.33 12 5.66 12 6 C6.75394171 7.13664596 6.75394171 7.13664596 4 7 C1.5 4.6875 1.5 4.6875 0 2 C0 1.34 0 0.68 0 0 Z " fill="#5C51C1" transform="translate(303,139)"/>
<path d="M0 0 C7.50769231 0.61538462 7.50769231 0.61538462 10 2.5625 C10.33 3.036875 10.66 3.51125 11 4 C6.55129785 4.39253254 3.85756507 3.15305957 0 1 C0 0.67 0 0.34 0 0 Z " fill="#6459C4" transform="translate(413,159)"/>
<path d="M0 0 C1.98 0.66 3.96 1.32 6 2 C6.33 3.65 6.66 5.3 7 7 C6.401875 6.54625 5.80375 6.0925 5.1875 5.625 C3.49409348 4.36704087 1.75522914 3.17015276 0 2 C0 1.34 0 0.68 0 0 Z " fill="#796BB7" transform="translate(92,482)"/>
<path d="M0 0 C3.16115776 1.36983503 3.9927092 1.9890638 6 5 C6.125 8.1875 6.125 8.1875 6 11 C5.7525 10.484375 5.505 9.96875 5.25 9.4375 C3.60418384 6.22815849 1.8023904 3.12414336 0 0 Z " fill="#5E53BF" transform="translate(443,73)"/>
<path d="M0 0 C3.375 -0.125 3.375 -0.125 7 0 C7.66 0.66 8.32 1.32 9 2 C6.03 1.67 3.06 1.34 0 1 C0 0.67 0 0.34 0 0 Z " fill="#9280BE" transform="translate(501,162)"/>
<path d="M0 0 C1.32 0.33 2.64 0.66 4 1 C4 1.99 4 2.98 4 4 C2 3 2 3 0 0 Z " fill="#8B79C5" transform="translate(243,116)"/>
<path d="M0 0 C0.99 0.495 0.99 0.495 2 1 C1.67 2.32 1.34 3.64 1 5 C0.67 5 0.34 5 0 5 C0 3.35 0 1.7 0 0 Z " fill="#9985B6" transform="translate(228,75)"/>
<path d="M0 0 C2.31 0 4.62 0 7 0 C7 0.33 7 0.66 7 1 C4.69 1 2.38 1 0 1 C0 0.67 0 0.34 0 0 Z " fill="#8D7DC7" transform="translate(330,139)"/>
<path d="M0 0 C0.99 0.99 1.98 1.98 3 3 C2.01 3.495 2.01 3.495 1 4 C0.67 2.68 0.34 1.36 0 0 Z " fill="#9A86B5" transform="translate(113,510)"/>
<path d="M0 0 C0.33 1.32 0.66 2.64 1 4 C0.34 3.34 -0.32 2.68 -1 2 C-0.67 1.34 -0.34 0.68 0 0 Z " fill="#9181BA" transform="translate(166,571)"/>
<path d="M0 0 C1.65 0 3.3 0 5 0 C5 0.33 5 0.66 5 1 C3.35 1 1.7 1 0 1 C0 0.67 0 0.34 0 0 Z " fill="#9683BE" transform="translate(173,162)"/>
<path d="M0 0 C1.32 0 2.64 0 4 0 C3.67 0.66 3.34 1.32 3 2 C2.01 1.34 1.02 0.68 0 0 Z " fill="#8778C6" transform="translate(407,154)"/>
<path d="M0 0 C0.66 0.99 1.32 1.98 2 3 C1.01 2.67 0.02 2.34 -1 2 C-0.67 1.34 -0.34 0.68 0 0 Z " fill="#8576CA" transform="translate(278,148)"/>
<path d="M0 0 C0.99 0 1.98 0 3 0 C2.67 0.99 2.34 1.98 2 3 C2 2.34 2 1.68 2 1 C1.34 0.67 0.68 0.34 0 0 Z " fill="#9785BB" transform="translate(273,67)"/>
<path d="M0 0 C1 4 1 4 1 4 Z " fill="#9684BD" transform="translate(227,588)"/>
<path d="M0 0 C0.99 0.495 0.99 0.495 2 1 C1.67 1.66 1.34 2.32 1 3 C0.67 2.01 0.34 1.02 0 0 Z " fill="#9781B9" transform="translate(133,526)"/>
<path d="M0 0 C0.33 0.66 0.66 1.32 1 2 C0.01 1.67 -0.98 1.34 -2 1 C-1.34 0.67 -0.68 0.34 0 0 Z " fill="#9A86B6" transform="translate(95,486)"/>
<path d="M0 0 C0.66 0.66 1.32 1.32 2 2 C1.01 2.495 1.01 2.495 0 3 C0 2.01 0 1.02 0 0 Z " fill="#9885B8" transform="translate(131,179)"/>
<path d="M0 0 C0.33 0.99 0.66 1.98 1 3 C0.34 2.67 -0.32 2.34 -1 2 C-0.67 1.34 -0.34 0.68 0 0 Z " fill="#9886BC" transform="translate(146,170)"/>
<path d="M0 0 C0.66 0 1.32 0 2 0 C1.67 0.99 1.34 1.98 1 3 C0.67 2.01 0.34 1.02 0 0 Z " fill="#8876C9" transform="translate(305,138)"/>
<path d="M0 0 C0.99 0 1.98 0 3 0 C2.67 0.66 2.34 1.32 2 2 C1.34 1.34 0.68 0.68 0 0 Z " fill="#8A77C5" transform="translate(249,118)"/>
<path d="M0 0 C4 1 4 1 4 1 Z " fill="#9D87B5" transform="translate(427,61)"/>
<path d="M0 0 C0.66 0 1.32 0 2 0 C2 0.66 2 1.32 2 2 C1.34 2 0.68 2 0 2 C0 1.34 0 0.68 0 0 Z " fill="#9985B8" transform="translate(413,61)"/>
<path d="M0 0 C3 1 3 1 3 1 Z " fill="#A28CA7" transform="translate(189,614)"/>
<path d="" fill="#8F7FBD" transform="translate(0,0)"/>
<path d="M0 0 C3 1 3 1 3 1 Z " fill="#8D7BBC" transform="translate(155,537)"/>
<path d="" fill="#9B86B5" transform="translate(0,0)"/>
<path d="" fill="#9B87B6" transform="translate(0,0)"/>
<path d="" fill="#9984B3" transform="translate(0,0)"/>
<path d="M0 0 C0.99 0.495 0.99 0.495 2 1 C1.01 1.495 1.01 1.495 0 2 C0 1.34 0 0.68 0 0 Z " fill="#9C88B5" transform="translate(88,234)"/>
<path d="" fill="#9783BA" transform="translate(0,0)"/>
<path d="M0 0 C3 1 3 1 3 1 Z " fill="#9986B7" transform="translate(100,210)"/>
<path d="M0 0 C0.66 0.66 1.32 1.32 2 2 C1.34 2 0.68 2 0 2 C0 1.34 0 0.68 0 0 Z " fill="#9987BB" transform="translate(565,194)"/>
<path d="M0 0 C0.66 0.66 1.32 1.32 2 2 C1.34 2 0.68 2 0 2 C0 1.34 0 0.68 0 0 Z " fill="#8878C6" transform="translate(264,154)"/>
<path d="M0 0 C3 1 3 1 3 1 Z " fill="#8B7AC6" transform="translate(321,140)"/>
<path d="M0 0 C0.33 0.66 0.66 1.32 1 2 C0.34 1.67 -0.32 1.34 -1 1 C-0.67 0.67 -0.34 0.34 0 0 Z " fill="#8E7FBF" transform="translate(237,112)"/>
<path d="" fill="#8A79C3" transform="translate(0,0)"/>
<path d="" fill="#9482BA" transform="translate(0,0)"/>
<path d="M0 0 C3 1 3 1 3 1 Z " fill="#9A86B2" transform="translate(237,66)"/>
<path d="M0 0 C0.33 0.66 0.66 1.32 1 2 C0.34 1.67 -0.32 1.34 -1 1 C-0.67 0.67 -0.34 0.34 0 0 Z " fill="#9A87B5" transform="translate(248,61)"/>
<path d="" fill="#9987B2" transform="translate(0,0)"/>
<path d="" fill="#9987B2" transform="translate(0,0)"/>
<path d="" fill="#9482B8" transform="translate(0,0)"/>
<path d="M0 0 C2 1 2 1 2 1 Z " fill="#9282BD" transform="translate(165,566)"/>
<path d="" fill="#907EBC" transform="translate(0,0)"/>
<path d="" fill="#8E7FBD" transform="translate(0,0)"/>
<path d="" fill="#9885BC" transform="translate(0,0)"/>
<path d="" fill="#9885B8" transform="translate(0,0)"/>
<path d="M0 0 C2 1 2 1 2 1 Z " fill="#9883B8" transform="translate(506,541)"/>
<path d="" fill="#9783BC" transform="translate(0,0)"/>
<path d="M0 0 C2 1 2 1 2 1 Z " fill="#9480BB" transform="translate(145,533)"/>
<path d="M0 0 C2 1 2 1 2 1 Z " fill="#9680BA" transform="translate(137,529)"/>
<path d="" fill="#9784BB" transform="translate(0,0)"/>
<path d="" fill="#9987B6" transform="translate(0,0)"/>
<path d="M0 0 C2 1 2 1 2 1 Z " fill="#9784BD" transform="translate(583,489)"/>
<path d="" fill="#9784BB" transform="translate(0,0)"/>
<path d="" fill="#9A87B3" transform="translate(0,0)"/>
<path d="" fill="#9784BD" transform="translate(0,0)"/>
<path d="" fill="#9B86B3" transform="translate(0,0)"/>
<path d="" fill="#9C89B5" transform="translate(0,0)"/>
<path d="" fill="#9C89B3" transform="translate(0,0)"/>
<path d="" fill="#9681BC" transform="translate(0,0)"/>
<path d="" fill="#9B88B7" transform="translate(0,0)"/>
<path d="" fill="#9A86B6" transform="translate(0,0)"/>
<path d="M0 0 C2 1 2 1 2 1 Z " fill="#9787BD" transform="translate(149,170)"/>
<path d="M0 0 C2 1 2 1 2 1 Z " fill="#9482BF" transform="translate(512,164)"/>
<path d="" fill="#9985BE" transform="translate(0,0)"/>
<path d="" fill="#8876C8" transform="translate(0,0)"/>
<path d="" fill="#8977C9" transform="translate(0,0)"/>
<path d="M0 0 C2 1 2 1 2 1 Z " fill="#8D7DC7" transform="translate(341,139)"/>
<path d="" fill="#8D7CC5" transform="translate(0,0)"/>
<path d="M0 0 C2 1 2 1 2 1 Z " fill="#8D7AC5" transform="translate(432,117)"/>
<path d="M0 0 C2 1 2 1 2 1 Z " fill="#8878C7" transform="translate(287,114)"/>
<path d="" fill="#8A7AC8" transform="translate(0,0)"/>
<path d="" fill="#9481BA" transform="translate(0,0)"/>
<path d="" fill="#9380BB" transform="translate(0,0)"/>
<path d="M0 0 C2 1 2 1 2 1 Z " fill="#9784B7" transform="translate(449,76)"/>
<path d="" fill="#9783B9" transform="translate(0,0)"/>
<path d="" fill="#9984B6" transform="translate(0,0)"/>
<path d="" fill="#9A86B5" transform="translate(0,0)"/>
<path d="M0 0 C2 1 2 1 2 1 Z " fill="#9D89B3" transform="translate(263,62)"/>
<path d="M0 0 C2 1 2 1 2 1 Z " fill="#9A84B6" transform="translate(419,61)"/>
<path d="M0 0 C2 1 2 1 2 1 Z " fill="#9A86B7" transform="translate(251,61)"/>
<path d="" fill="#A290A9" transform="translate(0,0)"/>
<path d="" fill="#A28EAA" transform="translate(0,0)"/>
<path d="" fill="#A18BAB" transform="translate(0,0)"/>
<path d="" fill="#A18BB2" transform="translate(0,0)"/>
<path d="" fill="#A08BB0" transform="translate(0,0)"/>
<path d="" fill="#9A87B5" transform="translate(0,0)"/>
<path d="" fill="#A08CAE" transform="translate(0,0)"/>
<path d="" fill="#9D8BB7" transform="translate(0,0)"/>
<path d="" fill="#9E8CB0" transform="translate(0,0)"/>
<path d="" fill="#9A88B7" transform="translate(0,0)"/>
<path d="" fill="#9A88BB" transform="translate(0,0)"/>
<path d="" fill="#9984B2" transform="translate(0,0)"/>
<path d="" fill="#9A88B2" transform="translate(0,0)"/>
<path d="" fill="#9D8AB1" transform="translate(0,0)"/>
<path d="" fill="#9885BF" transform="translate(0,0)"/>
<path d="" fill="#9582BE" transform="translate(0,0)"/>
<path d="" fill="#9788BA" transform="translate(0,0)"/>
<path d="" fill="#9785B8" transform="translate(0,0)"/>
<path d="" fill="#9683BA" transform="translate(0,0)"/>
<path d="" fill="#9383BC" transform="translate(0,0)"/>
<path d="" fill="#9581B9" transform="translate(0,0)"/>
<path d="" fill="#9683BE" transform="translate(0,0)"/>
<path d="" fill="#9684C3" transform="translate(0,0)"/>
<path d="" fill="#9786C0" transform="translate(0,0)"/>
<path d="" fill="#927FBC" transform="translate(0,0)"/>
<path d="" fill="#9482C2" transform="translate(0,0)"/>
<path d="" fill="#9384C1" transform="translate(0,0)"/>
<path d="" fill="#9685C0" transform="translate(0,0)"/>
<path d="" fill="#9380BD" transform="translate(0,0)"/>
<path d="" fill="#9584BE" transform="translate(0,0)"/>
<path d="" fill="#9583BF" transform="translate(0,0)"/>
<path d="" fill="#9482C3" transform="translate(0,0)"/>
<path d="" fill="#9483BE" transform="translate(0,0)"/>
<path d="" fill="#9382BC" transform="translate(0,0)"/>
<path d="" fill="#9280C0" transform="translate(0,0)"/>
<path d="" fill="#9884BC" transform="translate(0,0)"/>
<path d="" fill="#9784BD" transform="translate(0,0)"/>
<path d="" fill="#9686BC" transform="translate(0,0)"/>
<path d="" fill="#9785BC" transform="translate(0,0)"/>
<path d="" fill="#9786BD" transform="translate(0,0)"/>
<path d="" fill="#9785BD" transform="translate(0,0)"/>
<path d="" fill="#9987BC" transform="translate(0,0)"/>
<path d="" fill="#9985BF" transform="translate(0,0)"/>
<path d="" fill="#9784BB" transform="translate(0,0)"/>
<path d="" fill="#9785BD" transform="translate(0,0)"/>
<path d="" fill="#9785BF" transform="translate(0,0)"/>
<path d="" fill="#9684BD" transform="translate(0,0)"/>
<path d="" fill="#9684BD" transform="translate(0,0)"/>
<path d="" fill="#9784BE" transform="translate(0,0)"/>
<path d="" fill="#9583BE" transform="translate(0,0)"/>
<path d="" fill="#9684BF" transform="translate(0,0)"/>
<path d="" fill="#9482C0" transform="translate(0,0)"/>
<path d="" fill="#9380BD" transform="translate(0,0)"/>
<path d="" fill="#9281C1" transform="translate(0,0)"/>
<path d="" fill="#9883B8" transform="translate(0,0)"/>
<path d="" fill="#8E79C1" transform="translate(0,0)"/>
<path d="" fill="#9885BC" transform="translate(0,0)"/>
<path d="" fill="#957FBB" transform="translate(0,0)"/>
<path d="" fill="#9580BE" transform="translate(0,0)"/>
<path d="" fill="#9380BD" transform="translate(0,0)"/>
<path d="" fill="#9B87BA" transform="translate(0,0)"/>
<path d="" fill="#9583BA" transform="translate(0,0)"/>
<path d="" fill="#9680B9" transform="translate(0,0)"/>
<path d="" fill="#9E89B6" transform="translate(0,0)"/>
<path d="" fill="#9684C0" transform="translate(0,0)"/>
<path d="" fill="#9783B6" transform="translate(0,0)"/>
<path d="" fill="#9884B8" transform="translate(0,0)"/>
<path d="" fill="#9987B4" transform="translate(0,0)"/>
<path d="" fill="#9A88B4" transform="translate(0,0)"/>
<path d="" fill="#9A87B9" transform="translate(0,0)"/>
<path d="" fill="#9983B6" transform="translate(0,0)"/>
<path d="" fill="#9C87B7" transform="translate(0,0)"/>
<path d="" fill="#9A88B6" transform="translate(0,0)"/>
<path d="" fill="#9A86BA" transform="translate(0,0)"/>
<path d="" fill="#9C87B5" transform="translate(0,0)"/>
<path d="" fill="#9884B6" transform="translate(0,0)"/>
<path d="" fill="#9584BB" transform="translate(0,0)"/>
<path d="" fill="#9A89B8" transform="translate(0,0)"/>
<path d="" fill="#9D89AF" transform="translate(0,0)"/>
<path d="" fill="#9884BB" transform="translate(0,0)"/>
<path d="" fill="#9786C0" transform="translate(0,0)"/>
<path d="" fill="#9883BC" transform="translate(0,0)"/>
<path d="" fill="#9885BB" transform="translate(0,0)"/>
<path d="" fill="#9784BD" transform="translate(0,0)"/>
<path d="" fill="#9C86B1" transform="translate(0,0)"/>
<path d="" fill="#9B86B3" transform="translate(0,0)"/>
<path d="" fill="#9D89B3" transform="translate(0,0)"/>
<path d="" fill="#9E88B4" transform="translate(0,0)"/>
<path d="" fill="#9E89B2" transform="translate(0,0)"/>
<path d="" fill="#9E87B3" transform="translate(0,0)"/>
<path d="" fill="#9F8AB3" transform="translate(0,0)"/>
<path d="" fill="#9984B3" transform="translate(0,0)"/>
<path d="" fill="#9987B3" transform="translate(0,0)"/>
<path d="" fill="#9E89B5" transform="translate(0,0)"/>
<path d="" fill="#A18BB0" transform="translate(0,0)"/>
<path d="" fill="#9D88B6" transform="translate(0,0)"/>
<path d="" fill="#9E88B4" transform="translate(0,0)"/>
<path d="" fill="#9D8AB5" transform="translate(0,0)"/>
<path d="" fill="#A087B0" transform="translate(0,0)"/>
<path d="" fill="#9C8BB6" transform="translate(0,0)"/>
<path d="" fill="#9D89B4" transform="translate(0,0)"/>
<path d="" fill="#9D88B3" transform="translate(0,0)"/>
<path d="" fill="#9C89B5" transform="translate(0,0)"/>
<path d="" fill="#9E8AB6" transform="translate(0,0)"/>
<path d="" fill="#9F89B2" transform="translate(0,0)"/>
<path d="" fill="#9A84B2" transform="translate(0,0)"/>
<path d="" fill="#9888BA" transform="translate(0,0)"/>
<path d="" fill="#9A86BD" transform="translate(0,0)"/>
<path d="" fill="#9A86B6" transform="translate(0,0)"/>
<path d="" fill="#9A86B8" transform="translate(0,0)"/>
<path d="" fill="#9C89B7" transform="translate(0,0)"/>
<path d="" fill="#967EBB" transform="translate(0,0)"/>
<path d="" fill="#9888BB" transform="translate(0,0)"/>
<path d="" fill="#9C87B4" transform="translate(0,0)"/>
<path d="" fill="#9683BC" transform="translate(0,0)"/>
<path d="" fill="#9E87B2" transform="translate(0,0)"/>
<path d="" fill="#9F8AB7" transform="translate(0,0)"/>
<path d="" fill="#9A86BC" transform="translate(0,0)"/>
<path d="" fill="#9885B8" transform="translate(0,0)"/>
<path d="" fill="#9A86BA" transform="translate(0,0)"/>
<path d="" fill="#9987BE" transform="translate(0,0)"/>
<path d="" fill="#9986BC" transform="translate(0,0)"/>
<path d="" fill="#9A87B5" transform="translate(0,0)"/>
<path d="" fill="#9B86B6" transform="translate(0,0)"/>
<path d="" fill="#9885BC" transform="translate(0,0)"/>
<path d="" fill="#9987BE" transform="translate(0,0)"/>
<path d="" fill="#9683BC" transform="translate(0,0)"/>
<path d="" fill="#9785B9" transform="translate(0,0)"/>
<path d="" fill="#9B86B4" transform="translate(0,0)"/>
<path d="" fill="#9684B9" transform="translate(0,0)"/>
<path d="" fill="#9986B8" transform="translate(0,0)"/>
<path d="" fill="#9A87B4" transform="translate(0,0)"/>
<path d="" fill="#9786BA" transform="translate(0,0)"/>
<path d="" fill="#9984B6" transform="translate(0,0)"/>
<path d="" fill="#9C86B6" transform="translate(0,0)"/>
<path d="" fill="#9B86B8" transform="translate(0,0)"/>
<path d="" fill="#9885B8" transform="translate(0,0)"/>
<path d="" fill="#9684BD" transform="translate(0,0)"/>
<path d="" fill="#9787BB" transform="translate(0,0)"/>
<path d="" fill="#9985BC" transform="translate(0,0)"/>
<path d="" fill="#9B8AB9" transform="translate(0,0)"/>
<path d="" fill="#9885B8" transform="translate(0,0)"/>
<path d="" fill="#9582B9" transform="translate(0,0)"/>
<path d="" fill="#9986B7" transform="translate(0,0)"/>
<path d="" fill="#9885BD" transform="translate(0,0)"/>
<path d="" fill="#9786BB" transform="translate(0,0)"/>
<path d="" fill="#9582BD" transform="translate(0,0)"/>
<path d="" fill="#9C8ABA" transform="translate(0,0)"/>
<path d="" fill="#9683BC" transform="translate(0,0)"/>
<path d="" fill="#9C88B9" transform="translate(0,0)"/>
<path d="" fill="#9885C0" transform="translate(0,0)"/>
<path d="" fill="#9A87BF" transform="translate(0,0)"/>
<path d="" fill="#9A85BE" transform="translate(0,0)"/>
<path d="" fill="#9582C2" transform="translate(0,0)"/>
<path d="" fill="#927EC5" transform="translate(0,0)"/>
<path d="" fill="#917EC6" transform="translate(0,0)"/>
<path d="" fill="#8F7CC8" transform="translate(0,0)"/>
<path d="" fill="#8F7BC4" transform="translate(0,0)"/>
<path d="" fill="#927DC2" transform="translate(0,0)"/>
<path d="" fill="#8E7AC8" transform="translate(0,0)"/>
<path d="" fill="#8B77C6" transform="translate(0,0)"/>
<path d="" fill="#8777CC" transform="translate(0,0)"/>
<path d="" fill="#8775CA" transform="translate(0,0)"/>
<path d="" fill="#897CCA" transform="translate(0,0)"/>
<path d="" fill="#8976C7" transform="translate(0,0)"/>
<path d="" fill="#8676C8" transform="translate(0,0)"/>
<path d="" fill="#8879C6" transform="translate(0,0)"/>
<path d="" fill="#8A79C7" transform="translate(0,0)"/>
<path d="" fill="#8375CA" transform="translate(0,0)"/>
<path d="" fill="#8878C6" transform="translate(0,0)"/>
<path d="" fill="#8D7DC9" transform="translate(0,0)"/>
<path d="" fill="#8879C6" transform="translate(0,0)"/>
<path d="" fill="#8D7DC6" transform="translate(0,0)"/>
<path d="" fill="#8E7EC9" transform="translate(0,0)"/>
<path d="" fill="#8B7BC8" transform="translate(0,0)"/>
<path d="" fill="#8878C5" transform="translate(0,0)"/>
<path d="" fill="#8677C7" transform="translate(0,0)"/>
<path d="" fill="#8877C4" transform="translate(0,0)"/>
<path d="" fill="#8878C5" transform="translate(0,0)"/>
<path d="" fill="#8672CA" transform="translate(0,0)"/>
<path d="" fill="#8A79C7" transform="translate(0,0)"/>
<path d="" fill="#8473CB" transform="translate(0,0)"/>
<path d="" fill="#8676C6" transform="translate(0,0)"/>
<path d="" fill="#8673CB" transform="translate(0,0)"/>
<path d="" fill="#8977C9" transform="translate(0,0)"/>
<path d="" fill="#887AC8" transform="translate(0,0)"/>
<path d="" fill="#8574CB" transform="translate(0,0)"/>
<path d="" fill="#8575CA" transform="translate(0,0)"/>
<path d="" fill="#8779C6" transform="translate(0,0)"/>
<path d="" fill="#8778C5" transform="translate(0,0)"/>
<path d="" fill="#8677C5" transform="translate(0,0)"/>
<path d="" fill="#8375C6" transform="translate(0,0)"/>
<path d="" fill="#8B78C7" transform="translate(0,0)"/>
<path d="" fill="#897AC5" transform="translate(0,0)"/>
<path d="" fill="#8A77CC" transform="translate(0,0)"/>
<path d="" fill="#8976C6" transform="translate(0,0)"/>
<path d="" fill="#8B79CA" transform="translate(0,0)"/>
<path d="" fill="#8B78CB" transform="translate(0,0)"/>
<path d="" fill="#897CC6" transform="translate(0,0)"/>
<path d="" fill="#8876C9" transform="translate(0,0)"/>
<path d="" fill="#8B7AC7" transform="translate(0,0)"/>
<path d="" fill="#8F7DC4" transform="translate(0,0)"/>
<path d="" fill="#8F80C6" transform="translate(0,0)"/>
<path d="" fill="#8E80C0" transform="translate(0,0)"/>
<path d="" fill="#8A7BC5" transform="translate(0,0)"/>
<path d="" fill="#917EBC" transform="translate(0,0)"/>
<path d="" fill="#897BCB" transform="translate(0,0)"/>
<path d="" fill="#8A79C3" transform="translate(0,0)"/>
<path d="" fill="#897BC6" transform="translate(0,0)"/>
<path d="" fill="#9787C0" transform="translate(0,0)"/>
<path d="" fill="#8C7CC7" transform="translate(0,0)"/>
<path d="" fill="#8878C6" transform="translate(0,0)"/>
<path d="" fill="#917FBD" transform="translate(0,0)"/>
<path d="" fill="#907FBB" transform="translate(0,0)"/>
<path d="" fill="#9986B8" transform="translate(0,0)"/>
<path d="" fill="#9281BE" transform="translate(0,0)"/>
<path d="" fill="#9280BD" transform="translate(0,0)"/>
<path d="" fill="#9381BD" transform="translate(0,0)"/>
<path d="" fill="#9785B6" transform="translate(0,0)"/>
<path d="" fill="#9E88B4" transform="translate(0,0)"/>
<path d="" fill="#9684BC" transform="translate(0,0)"/>
<path d="" fill="#9685BD" transform="translate(0,0)"/>
<path d="" fill="#9784B8" transform="translate(0,0)"/>
<path d="" fill="#9585B6" transform="translate(0,0)"/>
<path d="" fill="#9483B8" transform="translate(0,0)"/>
<path d="" fill="#9E89B2" transform="translate(0,0)"/>
<path d="" fill="#9C86B6" transform="translate(0,0)"/>
<path d="" fill="#9E8AB8" transform="translate(0,0)"/>
<path d="" fill="#9986B5" transform="translate(0,0)"/>
<path d="" fill="#A087B2" transform="translate(0,0)"/>
<path d="" fill="#9A86B8" transform="translate(0,0)"/>
<path d="" fill="#9B89B4" transform="translate(0,0)"/>
<path d="" fill="#9D87B5" transform="translate(0,0)"/>
<path d="" fill="#CEB157" transform="translate(0,0)"/>
</svg>
